<?xml version="1.0" encoding="UTF-8"?>
<svg id="_Слой_2" data-name="Слой 2" xmlns="http://www.w3.org/2000/svg" xmlns:xlink="http://www.w3.org/1999/xlink" viewBox="0 0 536.56 521.5">
  <defs>
    <style>
      .cls-1 {
        fill: #c4c4c4;
      }

      .cls-1, .cls-2, .cls-3, .cls-4, .cls-5, .cls-6 {
        stroke-width: 0px;
      }

      .cls-2, .cls-7 {
        fill: none;
      }

      .cls-7 {
        stroke: #8f9599;
        stroke-linecap: round;
        stroke-linejoin: round;
      }

      .cls-3 {
        fill: #747c88;
      }

      .cls-4, .cls-5 {
        fill: #fff;
      }

      .cls-5 {
        fill-rule: evenodd;
      }

      .cls-8 {
        clip-path: url(#clippath);
      }

      .cls-6 {
        fill: #1b99ff;
      }
    </style>
    <clipPath id="clippath">
      <rect class="cls-2" width="536.56" height="521.5"/>
    </clipPath>
  </defs>
  <g id="_Слой_1-2" data-name="Слой 1">
    <g class="cls-8">
      <path class="cls-5" d="m157.62,324.17c86.07-44.46,217.89-44.46,303.98,0h74.46v67.78c0,33.04-22.1,66.08-66.29,91.27-88.39,50.37-231.92,50.37-320.32,0-44.2-25.19-66.29-58.23-66.29-91.27v-67.78h74.46Z"/>
      <path class="cls-7" d="m157.62,324.17c86.07-44.46,217.89-44.46,303.98,0h74.46v67.78c0,33.04-22.1,66.08-66.29,91.27-88.39,50.37-231.92,50.37-320.32,0-44.2-25.19-66.29-58.23-66.29-91.27v-67.78h74.46Z"/>
      <path class="cls-5" d="m196.72,218.99c69.65-22.83,156.14-22.82,225.8.01l1.99-12.33c21.09,11.69,43.08,27.51,65.72,46.35,67.29,50.57,60.47,123.04-20.47,169.16-88.39,50.37-231.92,50.37-320.32,0-81.1-46.22-87.79-118.88-20.07-169.47,22.51-18.71,44.38-34.42,65.35-46.05l1.99,12.32Z"/>
      <path class="cls-7" d="m196.72,218.99c69.65-22.83,156.14-22.82,225.8.01l1.99-12.33c21.09,11.69,43.08,27.51,65.72,46.35,67.29,50.57,60.47,123.04-20.47,169.16-88.39,50.37-231.92,50.37-320.32,0-81.1-46.22-87.79-118.88-20.07-169.47,22.51-18.71,44.38-34.42,65.35-46.05l1.99,12.32Z"/>
      <path class="cls-5" d="m196.72,218.99c69.65-22.83,156.14-22.82,225.8.01l1.99-12.33c21.09,11.69,43.08,27.51,65.72,46.35,67.29,50.57,60.47,123.04-20.47,169.16-88.39,50.37-231.92,50.37-320.32,0-81.1-46.22-87.79-118.88-20.07-169.47,22.51-18.71,44.38-34.42,65.35-46.05l1.99,12.32Z"/>
      <path class="cls-7" d="m196.72,218.99c69.65-22.83,156.14-22.82,225.8.01l1.99-12.33c21.09,11.69,43.08,27.51,65.72,46.35,67.29,50.57,60.47,123.04-20.47,169.16-88.39,50.37-231.92,50.37-320.32,0-81.1-46.22-87.79-118.88-20.07-169.47,22.51-18.71,44.38-34.42,65.35-46.05l1.99,12.32Z"/>
      <path class="cls-5" d="m153.29,246.82c7.3-14.7,21.1-28.57,41.4-40.14,63.42-36.14,166.4-36.14,229.82,0,20.29,11.57,34.09,25.44,41.4,40.14h6.17v29.6h-.17c-1.78,22.26-17.58,44.24-47.39,61.23-63.42,36.14-166.4,36.14-229.82,0-29.81-16.99-45.61-38.96-47.39-61.23h-.17v-29.6h6.17Z"/>
      <path class="cls-7" d="m153.29,246.82c7.3-14.7,21.1-28.57,41.4-40.14,63.42-36.14,166.4-36.14,229.82,0,20.29,11.57,34.09,25.44,41.4,40.14h6.17v29.6h-.17c-1.78,22.26-17.58,44.24-47.39,61.23-63.42,36.14-166.4,36.14-229.82,0-29.81-16.99-45.61-38.96-47.39-61.23h-.17v-29.6h6.17Z"/>
      <path class="cls-5" d="m494.55,224.3v33.83c-5.56-3.6-10.51-7.39-24.43-8.38l-.32-11.42,24.75-14.04Z"/>
      <path class="cls-7" d="m494.55,224.3v33.83c-5.56-3.6-10.51-7.39-24.43-8.38l-.32-11.42,24.75-14.04Z"/>
      <path class="cls-5" d="m124.23,224.33v33.83c5.56-3.6,10.51-7.39,24.43-8.38l.32-11.42-24.75-14.04Z"/>
      <path class="cls-7" d="m124.23,224.33v33.83c5.56-3.6,10.51-7.39,24.43-8.38l.32-11.42-24.75-14.04Z"/>
      <polygon class="cls-5" points="309.39 250.17 194.11 184.47 124.23 224.3 239.51 289.99 124.23 355.68 194.11 395.51 309.39 329.81 424.67 395.51 494.55 355.68 379.27 289.99 494.55 224.3 424.67 184.47 309.39 250.17"/>
      <polygon class="cls-7" points="309.39 250.17 194.11 184.47 124.23 224.3 239.51 289.99 124.23 355.68 194.11 395.51 309.39 329.81 424.67 395.51 494.55 355.68 379.27 289.99 494.55 224.3 424.67 184.47 309.39 250.17"/>
      <polygon class="cls-5" points="309.39 250.17 194.11 184.47 124.23 224.3 239.51 289.99 124.23 355.68 194.11 395.51 309.39 329.81 424.67 395.51 494.55 355.68 379.27 289.99 494.55 224.3 424.67 184.47 309.39 250.17"/>
      <polygon class="cls-7" points="309.39 250.17 194.11 184.47 124.23 224.3 239.51 289.99 124.23 355.68 194.11 395.51 309.39 329.81 424.67 395.51 494.55 355.68 379.27 289.99 494.55 224.3 424.67 184.47 309.39 250.17"/>
      <path class="cls-5" d="m194.69,185.86c63.42-36.14,166.4-36.14,229.82,0,63.42,36.14,63.42,94.82,0,130.97-63.42,36.14-166.4,36.14-229.82,0-63.42-36.14-63.42-94.82,0-130.97"/>
      <ellipse class="cls-7" cx="309.6" cy="251.35" rx="162.51" ry="92.61"/>
      <polygon class="cls-5" points="194.11 395.51 124.23 355.68 124.23 397.14 194.11 436.97 194.11 395.51"/>
      <polygon class="cls-7" points="194.11 395.51 124.23 355.68 124.23 397.14 194.11 436.97 194.11 395.51"/>
      <polygon class="cls-5" points="424.67 395.54 494.55 355.71 494.55 397.17 424.67 437 424.67 395.54"/>
      <polygon class="cls-7" points="424.67 395.54 494.55 355.71 494.55 397.17 424.67 437 424.67 395.54"/>
      <path class="cls-5" d="m286.19,342.97l-92.07,52.54v41.46c24.49-25.39,49.87-50.1,92.48-73.13l-.4-20.87Z"/>
      <path class="cls-7" d="m286.19,342.97l-92.07,52.54v41.46c24.49-25.39,49.87-50.1,92.48-73.13l-.4-20.87Z"/>
      <path class="cls-5" d="m332.6,343l92.07,52.54v41.46c-24.49-25.39-49.87-50.1-92.48-73.13l.4-20.87Z"/>
      <path class="cls-7" d="m332.6,343l92.07,52.54v41.46c-24.49-25.39-49.87-50.1-92.48-73.13l.4-20.87Z"/>
      <path class="cls-1" d="m416.99,213.13h-214.78v29.68h.21c1.16,13.05,11.52,25.95,31.26,35.95,41.9,21.27,109.89,21.27,151.9,0,19.76-10.01,29.99-22.91,31.21-35.95h.21v-29.68Z"/>
      <path class="cls-7" d="m416.99,213.13h-214.78v29.68h.21c1.16,13.05,11.52,25.95,31.26,35.95,41.9,21.27,109.89,21.27,151.9,0,19.76-10.01,29.99-22.91,31.21-35.95h.21v-29.68Z"/>
      <path class="cls-1" d="m385.58,251.54c-42.01,21.27-109.99,21.27-151.9,0-42.01-21.21-42.01-55.68,0-76.82,41.9-21.27,109.89-21.27,151.9,0,41.93,21.15,41.93,55.61,0,76.82"/>
      <path class="cls-7" d="m385.58,251.54c-42.01,21.27-109.99,21.27-151.9,0-42.01-21.21-42.01-55.68,0-76.82,41.9-21.27,109.89-21.27,151.9,0,41.93,21.15,41.93,55.61,0,76.82Z"/>
      <path class="cls-3" d="m210.64,350.98c0,5.6-7.4,10.15-16.53,10.15s-16.53-4.54-16.53-10.15,7.4-10.15,16.53-10.15,16.53,4.54,16.53,10.15"/>
      <path class="cls-7" d="m210.64,350.98c0,5.6-7.4,10.15-16.53,10.15s-16.53-4.54-16.53-10.15,7.4-10.15,16.53-10.15,16.53,4.54,16.53,10.15Z"/>
      <path class="cls-4" d="m126.38,288.07h-5.12v22.02h.01c.02.36.27.71.74.97.99.58,2.62.58,3.61,0,.47-.26.72-.61.75-.97h0v-22.02Z"/>
      <path class="cls-7" d="m126.38,288.07h-5.12v22.02h.01c.02.36.27.71.74.97.99.58,2.62.58,3.61,0,.47-.26.72-.61.75-.97h0v-22.02Z"/>
      <path class="cls-4" d="m125.63,289.12c-1,.57-2.62.57-3.61,0-1.01-.58-1.01-1.51,0-2.1.99-.58,2.61-.58,3.61,0,1,.58,1,1.52,0,2.1"/>
      <path class="cls-7" d="m125.63,289.12c-1,.57-2.62.57-3.61,0-1.01-.58-1.01-1.51,0-2.1.99-.58,2.61-.58,3.61,0,1,.58,1,1.52,0,2.1Z"/>
      <path class="cls-4" d="m126.38,272.95h-5.12v22.02h.01c.02.36.27.71.74.97.99.58,2.62.58,3.61,0,.47-.26.72-.61.75-.97h0v-22.02Z"/>
      <path class="cls-7" d="m126.38,272.95h-5.12v22.02h.01c.02.36.27.71.74.97.99.58,2.62.58,3.61,0,.47-.26.72-.61.75-.97h0v-22.02Z"/>
      <path class="cls-4" d="m125.63,274c-1,.57-2.62.57-3.61,0-1.01-.58-1.01-1.51,0-2.1.99-.58,2.61-.58,3.61,0,1,.58,1,1.52,0,2.1"/>
      <path class="cls-7" d="m125.63,274c-1,.57-2.62.57-3.61,0-1.01-.58-1.01-1.51,0-2.1.99-.58,2.61-.58,3.61,0,1,.58,1,1.52,0,2.1Z"/>
      <path class="cls-4" d="m125.37,269.02h-3.1l-.68,3.78c.03.32.25.64.65.86.87.52,2.29.52,3.16,0,.42-.23.63-.54.65-.86l-.67-3.78Z"/>
      <path class="cls-7" d="m125.37,269.02h-3.1l-.68,3.78c.03.32.25.64.65.86.87.52,2.29.52,3.16,0,.42-.23.63-.54.65-.86l-.67-3.78Z"/>
      <path class="cls-4" d="m124.92,269.66c-.6.35-1.59.35-2.2,0-.59-.35-.59-.91,0-1.27.62-.36,1.6-.36,2.2,0,.61.35.61.91,0,1.27"/>
      <path class="cls-7" d="m124.92,269.66c-.6.35-1.59.35-2.2,0-.59-.35-.59-.91,0-1.27.62-.36,1.6-.36,2.2,0,.61.35.61.91,0,1.27Z"/>
      <path class="cls-5" d="m31.42,89.6l-26.95,15.7c-1.85,1.32-3.4,3.46-3.41,5.62l-.43,51.25,38.24,22.5,33.45-59.68.93-9.99c.17-1.82-.68-3.48-2.25-4.4l-35-20.58c-1.44-.85-3.02-.99-4.59-.42"/>
      <path class="cls-7" d="m31.42,89.6l-26.95,15.7c-1.85,1.32-3.4,3.46-3.41,5.62l-.43,51.25,38.24,22.5,33.45-59.68.93-9.99c.17-1.82-.68-3.48-2.25-4.4l-35-20.58c-1.44-.85-3.02-.99-4.59-.42Z"/>
      <path class="cls-5" d="m1.04,112.48l-.54,52.49c-.02,2.04.97,3.8,2.72,4.83l34.49,20.28c1.45.85,3.12.85,4.56,0l19.56-11.57-21.08-44.66c-.49-1.07-1.2-1.87-2.22-2.46L3.75,110.93c-.58-.34-1.23-.34-1.8-.01-.57.33-.91.9-.91,1.56"/>
      <path class="cls-7" d="m1.04,112.48l-.54,52.49c-.02,2.04.97,3.8,2.72,4.83l34.49,20.28c1.45.85,3.12.85,4.56,0l19.56-11.57-21.08-44.66c-.49-1.07-1.2-1.87-2.22-2.46L3.75,110.93c-.58-.34-1.23-.34-1.8-.01-.57.33-.91.9-.91,1.56Z"/>
      <path class="cls-5" d="m33.54,187.63l4.17,2.45c1.45.85,3.12.85,4.56,0l30.96-75.1c.18-1.81-.65-3.46-2.22-4.39l-4.75-2.79-29.56,17.9c-.84.5-1.4,1.31-1.83,2.11h0s-.06.12-.06.12l-.03.06h0s-.03.08-.03.08h0s-.03.09-.03.09h0s-.07.19-.07.19v.04s-.02.01-.02.01c-.31.75-.49,1.56-.51,2.43-.37,19-.37,38.22-.55,56.81"/>
      <path class="cls-7" d="m33.54,187.63l4.17,2.45c1.45.85,3.12.85,4.56,0l30.96-75.1c.18-1.81-.65-3.46-2.22-4.39l-4.75-2.79-29.56,17.9c-.84.5-1.4,1.31-1.83,2.11h0s-.06.12-.06.12l-.03.06h0s-.03.08-.03.08h0s-.03.09-.03.09h0s-.07.19-.07.19v.04s-.02.01-.02.01c-.31.75-.49,1.56-.51,2.43-.37,19-.37,38.22-.55,56.81Z"/>
      <path class="cls-5" d="m33.54,187.63l4.17,2.45c1.45.85,3.12.85,4.56,0l18.76-45.52-26.67-15.48c-.16.55-.25,1.12-.27,1.74-.37,19-.37,38.22-.55,56.81"/>
      <path class="cls-7" d="m33.54,187.63l4.17,2.45c1.45.85,3.12.85,4.56,0l18.76-45.52-26.67-15.48c-.16.55-.25,1.12-.27,1.74-.37,19-.37,38.22-.55,56.81Z"/>
      <path class="cls-5" d="m42.69,189.76l30.42-17.88.34-57.22c0-.62-.27-1.16-.78-1.52-.5-.36-1.1-.43-1.67-.21l-28.36,16.69c-1.48.87-2.09,2.54-2.11,4.27l-.56,54.27c0,.68.32,1.26.9,1.61.58.34,1.25.35,1.83,0"/>
      <path class="cls-7" d="m42.69,189.76l30.42-17.88.34-57.22c0-.62-.27-1.16-.78-1.52-.5-.36-1.1-.43-1.67-.21l-28.36,16.69c-1.48.87-2.09,2.54-2.11,4.27l-.56,54.27c0,.68.32,1.26.9,1.61.58.34,1.25.35,1.83,0Z"/>
      <path class="cls-5" d="m65.79,110.02c-1.9-7.21,26.88-17.25,30.13-6.22,4.06,19.41,17.34,27.52,18.4,37.15,9.23,64.24-51.36,17.65-54.34,13.76-.34-5.81-.84-16.35,9.11-24.94,3.91-3.38,1-3.38-3.31-19.75"/>
      <path class="cls-7" d="m65.79,110.02c-1.9-7.21,26.88-17.25,30.13-6.22,4.06,19.41,17.34,27.52,18.4,37.15,9.23,64.24-51.36,17.65-54.34,13.76-.34-5.81-.84-16.35,9.11-24.94,3.91-3.38,1-3.38-3.31-19.75Z"/>
      <path class="cls-5" d="m114.07,282.15c.52,3.26,6.18,5.26,11.1,4.68,4.91-.58,7.77-2.72,8.41-5.28h0v-.08c.05-.14.07-.28.09-.42l2.55-14.27c.33-10.43-26.64-11.58-24.7-.37l2.54,15.75Z"/>
      <path class="cls-7" d="m114.07,282.15c.52,3.26,6.18,5.26,11.1,4.68,4.91-.58,7.77-2.72,8.41-5.28h0v-.08c.05-.14.07-.28.09-.42l2.55-14.27c.33-10.43-26.64-11.58-24.7-.37l2.54,15.75Z"/>
      <path class="cls-5" d="m126.43,260.27l.2,26.33c1.45-.18,3.99-1.04,4.86-2.15l3.78-19.88c-1.33-2.36-4.76-4-8.84-4.29"/>
      <path class="cls-7" d="m126.43,260.27l.2,26.33c1.45-.18,3.99-1.04,4.86-2.15l3.78-19.88c-1.33-2.36-4.76-4-8.84-4.29Z"/>
      <path class="cls-5" d="m116.51,285.23l-3.78-20.46c.64-1.1,1.68-2,2.94-2.72l3.87,24.44c-1.15-.29-2.18-.72-3.03-1.26"/>
      <path class="cls-7" d="m116.51,285.23l-3.78-20.46c.64-1.1,1.68-2,2.94-2.72l3.87,24.44c-1.15-.29-2.18-.72-3.03-1.26Z"/>
      <path class="cls-5" d="m117.28,158.92c-6.29-12.01-31.5-25.83-54.46-37.86-2.26.71-7.04,3.24-8.64,5.43-1.42,6.82-1.41,17.59-.83,26.85,19.7,9.29,53.72,37.53,58.63,36.71,7.23-1.2,10.04-22.07,5.3-31.13"/>
      <path class="cls-7" d="m117.28,158.92c-6.29-12.01-31.5-25.83-54.46-37.86-2.26.71-7.04,3.24-8.64,5.43-1.42,6.82-1.41,17.59-.83,26.85,19.7,9.29,53.72,37.53,58.63,36.71,7.23-1.2,10.04-22.07,5.3-31.13Z"/>
      <path class="cls-5" d="m110.79,166.13c-6.56-12.53-32.45-27.03-56.56-39.71l-.05.06c-1.42,6.82-1.42,17.59-.84,26.85,19.68,9.29,53.67,37.48,58.62,36.71,2.03-7.7,1.88-18.07-1.17-23.91"/>
      <path class="cls-7" d="m110.79,166.13c-6.56-12.53-32.45-27.03-56.56-39.71l-.05.06c-1.42,6.82-1.42,17.59-.84,26.85,19.68,9.29,53.67,37.48,58.62,36.71,2.03-7.7,1.88-18.07-1.17-23.91Z"/>
      <path class="cls-5" d="m106.37,264.28c.92,5.73,10.88,9.25,19.54,8.24,8.65-1.02,13.68-4.8,14.81-9.29h0s.03-.15.03-.15c.06-.25.1-.49.13-.74l4.49-25.12c.59-18.36-46.9-20.4-43.48-.66l4.48,27.73Z"/>
      <path class="cls-7" d="m106.37,264.28c.92,5.73,10.88,9.25,19.54,8.24,8.65-1.02,13.68-4.8,14.81-9.29h0s.03-.15.03-.15c.06-.25.1-.49.13-.74l4.49-25.12c.59-18.36-46.9-20.4-43.48-.66l4.48,27.73Z"/>
      <path class="cls-5" d="m128.14,225.77l.35,46.35c2.55-.32,7.02-1.84,8.57-3.79l6.65-35.01c-2.35-4.16-8.39-7.04-15.57-7.55"/>
      <path class="cls-7" d="m128.14,225.77l.35,46.35c2.55-.32,7.02-1.84,8.57-3.79l6.65-35.01c-2.35-4.16-8.39-7.04-15.57-7.55Z"/>
      <path class="cls-5" d="m110.68,269.71l-6.66-36.02c1.13-1.94,2.95-3.53,5.18-4.79l6.82,43.03c-2.02-.51-3.83-1.27-5.34-2.22"/>
      <path class="cls-7" d="m110.68,269.71l-6.66-36.02c1.13-1.94,2.95-3.53,5.18-4.79l6.82,43.03c-2.02-.51-3.83-1.27-5.34-2.22Z"/>
      <path class="cls-5" d="m145.52,231.5l.67-77.57c-3.15-6.49-14.73-13.3-23.03-13.46-7.43,2.92-16.29,6.71-20.75,10.42l-8.67,9.6-.53,53.39,9.29,24.87.61,1.52c3.79,5.3,13.29,8.42,23.47,7.23,12.16-1.43,20.67-8.48,19.02-15.73l-.07-.26Z"/>
      <path class="cls-7" d="m145.52,231.5l.67-77.57c-3.15-6.49-14.73-13.3-23.03-13.46-7.43,2.92-16.29,6.71-20.75,10.42l-8.67,9.6-.53,53.39,9.29,24.87.61,1.52c3.79,5.3,13.29,8.42,23.47,7.23,12.16-1.43,20.67-8.48,19.02-15.73l-.07-.26Z"/>
      <polygon class="cls-5" points="102.34 150.96 93.68 155.02 93.25 212.71 101.5 236.17 102.34 150.96"/>
      <polygon class="cls-7" points="102.34 150.96 93.68 155.02 93.25 212.71 101.5 236.17 102.34 150.96"/>
      <path class="cls-5" d="m145.58,235.43l.03-3.59v-.08s-.08-.26-.08-.26l.68-79.66c-4.87-3.7-12.48-9.45-19.8-11h0s-.41-.08-.41-.08h0l-.42-.07h0l-.41-.06h0l-.41-.06h0l-.4-.04h0l-.4-.03h0l-.39-.02h0l-.4-.02h0l-.05.02-1.18,107.25c1.52.02,3.07-.08,4.64-.26,10.08-1.19,17.66-6.22,19.01-12.05"/>
      <path class="cls-7" d="m145.58,235.43l.03-3.59v-.08s-.08-.26-.08-.26l.68-79.66c-4.87-3.7-12.48-9.45-19.8-11h0s-.41-.08-.41-.08h0l-.42-.07h0l-.41-.06h0l-.41-.06h0l-.4-.04h0l-.4-.03h0l-.39-.02h0l-.4-.02h0l-.05.02-1.18,107.25c1.52.02,3.07-.08,4.64-.26,10.08-1.19,17.66-6.22,19.01-12.05Z"/>
      <path class="cls-5" d="m146.21,151.84c-7.8,5.06-15.59,10.12-23.39,15.18-13.6-7.33-17.33-8.97-29.14-12,10.41-6.3,15.97-9.67,26.38-15.97,10.61,2.3,16.86,3.85,26.15,12.79"/>
      <path class="cls-7" d="m146.21,151.84c-7.8,5.06-15.59,10.12-23.39,15.18-13.6-7.33-17.33-8.97-29.14-12,10.41-6.3,15.97-9.67,26.38-15.97,10.61,2.3,16.86,3.85,26.15,12.79Z"/>
      <path class="cls-5" d="m58.75,166.29h0c2.83.23,5.58-1.42,5.73-3.99l.78-14.36c.34-6.19-6.47-6.36-7.88-.34l-3.16,13.38c-.59,2.51,1.69,5.08,4.53,5.31"/>
      <path class="cls-7" d="m58.75,166.29h0c2.83.23,5.58-1.42,5.73-3.99l.78-14.36c.34-6.19-6.47-6.36-7.88-.34l-3.16,13.38c-.59,2.51,1.69,5.08,4.53,5.31Z"/>
      <path class="cls-5" d="m68.86,170.47h0c3.03.25,5.97-1.75,6.19-4.78l1.34-18.7c.52-7.27-7.38-8.23-8.76-1.07l-3.55,18.36c-.57,2.98,1.75,5.94,4.78,6.19"/>
      <path class="cls-7" d="m68.86,170.47h0c3.03.25,5.97-1.75,6.19-4.78l1.34-18.7c.52-7.27-7.38-8.23-8.76-1.07l-3.55,18.36c-.57,2.98,1.75,5.94,4.78,6.19Z"/>
      <path class="cls-5" d="m79.01,174.61h0c3.03.25,6.25-1.97,6.25-5.29v-21.68c-.01-7.96-8.66-9.05-9.28-1.11l-1.69,21.38c-.26,3.32,1.68,6.46,4.71,6.7"/>
      <path class="cls-7" d="m79.01,174.61h0c3.03.25,6.25-1.97,6.25-5.29v-21.68c-.01-7.96-8.66-9.05-9.28-1.11l-1.69,21.38c-.26,3.32,1.68,6.46,4.71,6.7Z"/>
      <path class="cls-5" d="m95.19,124.2c.9.8,1.73,1.73,2.47,2.81,8.24,7.66,8.77,13.19,8.01,22.28-.76,9.09-.71,11.73-2.78,13.97-4.47,4.83-15.47,7.25-23.09,8.77-1.05-10.76,4.12-13.46,11.69-13.73-1.88-1.95-3.14-1.83-.42-8.18-11.04-11.11-13.76-19.22-12.43-24.09"/>
      <path class="cls-7" d="m95.19,124.2c.9.8,1.73,1.73,2.47,2.81,8.24,7.66,8.77,13.19,8.01,22.28-.76,9.09-.71,11.73-2.78,13.97-4.47,4.83-15.47,7.25-23.09,8.77-1.05-10.76,4.12-13.46,11.69-13.73-1.88-1.95-3.14-1.83-.42-8.18-11.04-11.11-13.76-19.22-12.43-24.09"/>
      <path class="cls-5" d="m87.96,192.88h0c2.83.23,5.49-1.43,5.51-4.01l.09-14.42c.04-6.22-6.74-6.39-7.86-.34l-2.5,13.44c-.47,2.52,1.93,5.1,4.76,5.34"/>
      <path class="cls-7" d="m87.96,192.88h0c2.83.23,5.49-1.43,5.51-4.01l.09-14.42c.04-6.22-6.74-6.39-7.86-.34l-2.5,13.44c-.47,2.52,1.93,5.1,4.76,5.34Z"/>
      <path class="cls-5" d="m26,32.19c10.46,16.66,18.64,31.83,35.86,75.16,5.26,13.23,22.16,17.61,32.82,8.17,5.17-4.58,7.94-10.65,5.53-16.47-3.31-14.26-9.2-47.61-22.74-86.18-1.97-5.6-6.18-10.21-11.71-12.36"/>
      <path class="cls-7" d="m26,32.19c10.46,16.66,18.64,31.83,35.86,75.16,5.26,13.23,22.16,17.61,32.82,8.17,5.17-4.58,7.94-10.65,5.53-16.47-3.31-14.26-9.2-47.61-22.74-86.18-1.97-5.6-6.18-10.21-11.71-12.36"/>
      <path class="cls-6" d="m219.31,341.42h-50.4v12.15h.05c.27,3.06,2.7,6.09,7.34,8.44,9.83,4.99,25.79,4.99,35.64,0,4.64-2.35,7.04-5.38,7.32-8.44h.05v-12.15Z"/>
      <path class="cls-7" d="m219.31,341.42h-50.4v12.15h.05c.27,3.06,2.7,6.09,7.34,8.44,9.83,4.99,25.79,4.99,35.64,0,4.64-2.35,7.04-5.38,7.32-8.44h.05v-12.15Z"/>
      <path class="cls-6" d="m211.94,350.43c-9.86,4.99-25.81,4.99-35.64,0-9.86-4.98-9.86-13.06,0-18.03,9.83-4.99,25.79-4.99,35.64,0,9.84,4.96,9.84,13.05,0,18.03"/>
      <path class="cls-7" d="m211.94,350.43c-9.86,4.99-25.81,4.99-35.64,0-9.86-4.98-9.86-13.06,0-18.03,9.83-4.99,25.79-4.99,35.64,0,9.84,4.96,9.84,13.05,0,18.03Z"/>
      <path class="cls-3" d="m200.11,350.62c-1.28.65-3.34.65-4.61,0-1.28-.64-1.28-1.69,0-2.33,1.27-.65,3.33-.65,4.61,0,1.27.64,1.27,1.69,0,2.33"/>
      <path class="cls-3" d="m213.98,338.7c-1.28.65-3.34.65-4.61,0-1.28-.64-1.28-1.69,0-2.33,1.27-.65,3.33-.65,4.61,0,1.27.64,1.27,1.69,0,2.33"/>
      <path class="cls-3" d="m178.01,344.13c-1.28.65-3.34.65-4.61,0-1.28-.64-1.28-1.69,0-2.33,1.27-.65,3.33-.65,4.61,0,1.27.64,1.27,1.69,0,2.33"/>
      <path class="cls-3" d="m190.63,334.1c-1.28.65-3.34.65-4.61,0-1.28-.64-1.28-1.69,0-2.33,1.27-.65,3.33-.65,4.61,0,1.27.64,1.27,1.69,0,2.33"/>
      <path class="cls-3" d="m190.51,290.76h-4.37v18.78h.01c.02.3.23.61.63.83.85.5,2.23.5,3.08,0,.4-.22.61-.52.64-.83h0v-18.78Z"/>
      <path class="cls-3" d="m190.69,292.14c-1.3.74-3.42.74-4.72,0-1.31-.75-1.31-1.98,0-2.74,1.29-.76,3.42-.76,4.72,0,1.31.76,1.31,1.99,0,2.74"/>
      <path class="cls-3" d="m199.99,317.55h-4.37v18.78h.01c.02.3.23.61.63.83.85.5,2.23.5,3.08,0,.4-.22.61-.52.64-.83h0v-18.78Z"/>
      <path class="cls-3" d="m200.16,318.93c-1.3.74-3.42.74-4.72,0-1.31-.75-1.31-1.98,0-2.74,1.29-.76,3.42-.76,4.72,0,1.31.76,1.31,1.99,0,2.74"/>
      <path class="cls-3" d="m213.86,302.48h-4.37v18.78h.01c.02.3.23.61.63.83.85.5,2.23.5,3.08,0,.4-.22.61-.52.64-.83h0v-18.78Z"/>
      <path class="cls-3" d="m214.03,303.85c-1.3.74-3.42.74-4.72,0-1.31-.75-1.31-1.98,0-2.74,1.29-.76,3.42-.76,4.72,0,1.31.76,1.31,1.99,0,2.74"/>
      <path class="cls-3" d="m177.88,307.69h-4.37v18.78h.01c.02.3.23.61.63.83.85.5,2.23.5,3.08,0,.4-.22.61-.52.64-.83h0v-18.78Z"/>
      <path class="cls-3" d="m178.06,309.07c-1.3.74-3.42.74-4.72,0-1.31-.75-1.31-1.98,0-2.74,1.29-.76,3.42-.76,4.72,0,1.31.76,1.31,1.99,0,2.74"/>
    </g>
  </g>
</svg>