<?xml version="1.0" encoding="UTF-8"?>
<svg id="_Слой_2" data-name="Слой 2" xmlns="http://www.w3.org/2000/svg" xmlns:xlink="http://www.w3.org/1999/xlink" viewBox="0 0 563.96 342.9">
  <defs>
    <style>
      .cls-1 {
        stroke: #8f9599;
        stroke-miterlimit: 10;
      }

      .cls-1, .cls-2 {
        fill: none;
      }

      .cls-2, .cls-3 {
        stroke-width: 0px;
      }

      .cls-4 {
        clip-path: url(#clippath-1);
      }

      .cls-3 {
        fill: #fff;
      }

      .cls-5 {
        clip-path: url(#clippath);
      }
    </style>
    <clipPath id="clippath">
      <rect class="cls-2" width="563.96" height="342.9"/>
    </clipPath>
    <clipPath id="clippath-1">
      <rect class="cls-2" width="563.96" height="342.9"/>
    </clipPath>
  </defs>
  <g id="_Слой_1-2" data-name="Слой 1">
    <polygon class="cls-3" points="435.59 48.42 480.09 74.11 562.96 26.27 518.45 .58 435.59 48.42"/>
    <g class="cls-5">
      <polygon class="cls-1" points="562.96 26.27 480.09 74.12 435.59 48.42 518.45 .58 562.96 26.27"/>
    </g>
    <polygon class="cls-3" points="514.98 18.91 499.9 27.62 492.26 23.21 507.34 14.5 514.98 18.91"/>
    <polygon class="cls-1" points="514.98 18.91 499.9 27.62 492.26 23.21 507.34 14.5 514.98 18.91"/>
    <polygon class="cls-3" points="538.84 32.69 523.76 41.4 516.12 36.98 531.2 28.28 538.84 32.69"/>
    <polygon class="cls-1" points="538.84 32.69 523.76 41.4 516.12 36.98 531.2 28.28 538.84 32.69"/>
    <polygon class="cls-3" points="562.96 26.27 562.96 38.53 480.09 86.38 480.09 74.12 562.96 26.27"/>
    <g class="cls-4">
      <polygon class="cls-1" points="562.96 26.27 562.96 38.53 480.09 86.38 480.09 74.12 562.96 26.27"/>
      <path class="cls-3" d="m526.58,61.08v.34c-.1,3.56-1.93,7.08-5.45,9.11l-124.49,71.7c-3.37,1.96-7.54,1.96-10.92,0l-59.62-34.42c-3.64-2.11-5.46-5.78-5.46-9.45s1.83-7.37,5.46-9.47l124.5-71.7c3.37-1.94,7.53-1.94,10.92,0l59.62,34.42c3.65,2.11,5.45,5.79,5.44,9.47h.01Z"/>
      <path class="cls-1" d="m526.58,61.08v.34c-.1,3.56-1.93,7.08-5.45,9.11l-124.49,71.7c-3.37,1.96-7.54,1.96-10.92,0l-59.62-34.42c-3.64-2.11-5.46-5.78-5.46-9.45s1.83-7.37,5.46-9.47l124.5-71.7c3.37-1.94,7.53-1.94,10.92,0l59.62,34.42c3.65,2.11,5.45,5.79,5.44,9.47h.01Z"/>
      <path class="cls-3" d="m526.58,61.42v32.81c0,3.67-1.82,7.36-5.45,9.47l-124.49,71.69c-3.37,1.96-7.54,1.96-10.92,0l-59.62-34.41c-3.64-2.11-5.46-5.78-5.46-9.47v-33.15c0,3.67,1.83,7.35,5.46,9.46l59.62,34.42c3.38,1.96,7.55,1.96,10.92,0l124.49-71.7c3.52-2.03,5.35-5.55,5.45-9.11"/>
      <path class="cls-1" d="m526.58,61.42v32.81c0,3.67-1.82,7.36-5.45,9.47l-124.49,71.69c-3.37,1.96-7.54,1.96-10.92,0l-59.62-34.41c-3.64-2.11-5.46-5.78-5.46-9.47v-33.15c0,3.67,1.83,7.35,5.46,9.46l59.62,34.42c3.38,1.96,7.55,1.96,10.92,0l124.49-71.7c3.52-2.03,5.35-5.55,5.45-9.11Z"/>
      <path class="cls-3" d="m426.06,48.62l13.48,7.78-13.48,7.78-4.1-2.37-4.08,2.35c-4.78,2.76-5.85,6.93-2.65,10.37l3.82,4.12,32.23-18.61-6.57-3.79,26.76-4.82-8.35,15.45-6.56-3.79-43.62,25.18,7.13,2.21c5.96,1.84,13.18,1.23,17.96-1.53l.95-.55c-2.11-2.48-1.38-5.57,2.2-7.64,4.5-2.6,11.8-2.6,16.3,0,4.5,2.6,4.5,6.81,0,9.41-3.58,2.07-8.92,2.49-13.22,1.27l-.95.55c-7.12,4.11-17.87,5.03-26.75,2.28l-9.12-2.82-9.8,5.66c2.11,2.48,1.38,5.57-2.2,7.63-4.5,2.6-11.8,2.6-16.3,0-4.5-2.6-4.5-6.81,0-9.41,3.58-2.07,8.92-2.49,13.22-1.27l21.2-12.24-4.89-5.27c-4.76-5.13-3.17-11.33,3.95-15.45l4.08-2.35-4.1-2.37,13.48-7.78Z"/>
      <path class="cls-1" d="m426.06,48.62l13.48,7.78-13.48,7.78-4.1-2.37-4.08,2.35c-4.78,2.76-5.85,6.93-2.65,10.37l3.82,4.12,32.23-18.61-6.57-3.79,26.76-4.82-8.35,15.45-6.56-3.79-43.62,25.18,7.13,2.21c5.96,1.84,13.18,1.23,17.96-1.53l.95-.55c-2.11-2.48-1.38-5.57,2.2-7.64,4.5-2.6,11.8-2.6,16.3,0,4.5,2.6,4.5,6.81,0,9.41-3.58,2.07-8.92,2.49-13.22,1.27l-.95.55c-7.12,4.11-17.87,5.03-26.75,2.28l-9.12-2.82-9.8,5.66c2.11,2.48,1.38,5.57-2.2,7.63-4.5,2.6-11.8,2.6-16.3,0-4.5-2.6-4.5-6.81,0-9.41,3.58-2.07,8.92-2.49,13.22-1.27l21.2-12.24-4.89-5.27c-4.76-5.13-3.17-11.33,3.95-15.45l4.08-2.35-4.1-2.37,13.48-7.78Z"/>
      <path class="cls-3" d="m360.74,139.59c0-.12,0-.23-.02-.35,0-.05,0-.11-.01-.16,0-.02,0-.05,0-.07,0-.04,0-.08,0-.12-.01-.12-.02-.24-.04-.36-.01-.12-.03-.24-.05-.36,0,0,0-.01,0-.02s0-.01,0-.02c-.02-.11-.04-.22-.06-.33-.02-.12-.05-.25-.08-.38-.01-.05-.02-.09-.03-.14,0-.03-.01-.05-.02-.08-.01-.05-.02-.11-.04-.16-.03-.13-.07-.26-.1-.39-.03-.1-.06-.2-.08-.29,0-.02,0-.03-.01-.05,0-.01,0-.03-.01-.04-.04-.13-.08-.25-.12-.38-.04-.12-.08-.25-.13-.37,0-.02-.02-.05-.03-.07,0-.02-.01-.04-.02-.06-.03-.08-.06-.15-.09-.23-.04-.12-.09-.23-.14-.35-.04-.09-.07-.17-.11-.26,0-.01-.01-.03-.02-.04,0-.01-.01-.03-.02-.04-.05-.12-.1-.24-.16-.35-.06-.12-.12-.25-.18-.37-.01-.02-.02-.05-.04-.07-.01-.03-.03-.05-.04-.08-.05-.09-.09-.18-.14-.27-.1-.18-.2-.36-.3-.54-.01-.03-.03-.05-.04-.08-.03-.06-.07-.11-.11-.17-.15-.25-.3-.49-.46-.73-.02-.04-.04-.07-.07-.11-.11-.17-.23-.33-.35-.49-.02-.03-.04-.06-.06-.08,0,0,0-.01-.01-.02-.1-.13-.2-.26-.3-.4-.09-.11-.17-.22-.26-.32,0,0,0-.01-.01-.02,0,0,0,0,0,0-.09-.11-.18-.22-.28-.32-.09-.11-.19-.21-.28-.31-.02-.02-.03-.03-.05-.05-.02-.02-.03-.04-.05-.05-.07-.07-.13-.14-.2-.21-.1-.1-.2-.21-.31-.31-.03-.03-.07-.06-.1-.09-.02-.02-.05-.04-.07-.07-.05-.05-.1-.09-.15-.14-.11-.1-.21-.19-.32-.28-.05-.04-.1-.08-.14-.12-.02-.02-.05-.04-.07-.06-.04-.03-.07-.06-.11-.09-.11-.08-.21-.17-.32-.24-.08-.06-.15-.11-.23-.17-.01,0-.03-.02-.04-.03-.01,0-.03-.02-.04-.03-.1-.07-.21-.14-.31-.2-.1-.07-.2-.13-.31-.19-.02-.01-.05-.03-.07-.04-.08-.04-.16-.09-.23-.13-.1-.05-.2-.11-.3-.15-.06-.03-.12-.06-.18-.09-.02,0-.03-.02-.05-.02-.02,0-.04-.02-.06-.03-.1-.04-.2-.09-.29-.12-.1-.04-.2-.08-.29-.11-.01,0-.03,0-.04-.01-.01,0-.03,0-.04-.01-.07-.02-.14-.05-.21-.07-.1-.03-.2-.06-.3-.08-.04,0-.08-.02-.13-.03-.02,0-.05-.01-.07-.02-.04,0-.07-.02-.11-.02-.11-.02-.21-.04-.31-.05-.06,0-.12-.01-.17-.02-.02,0-.05,0-.07,0-.03,0-.05,0-.08,0-.11,0-.23-.01-.34-.01-.04,0-.09,0-.13,0-.04,0-.07,0-.11,0-.04,0-.09,0-.13,0-.14.01-.28.03-.41.06,0,0,0,0,0,0-.02,0-.03,0-.05.01-.16.03-.31.07-.46.12,0,0-.02,0-.03.01-.19.07-.38.15-.55.25-2.83,1.63-6.6,3.83-9.42,5.48.18-.1.36-.18.55-.25.16-.06.32-.1.49-.14.02,0,.03,0,.05-.01.18-.03.36-.05.55-.07.04,0,.07,0,.11,0,.18,0,.36,0,.55.01.02,0,.05,0,.07,0,.19.02.39.05.6.09.02,0,.04,0,.07.01.21.05.42.11.64.18.01,0,.03,0,.04.01.23.08.45.17.69.28.02,0,.03.02.05.02.24.11.48.23.72.37.25.14.49.3.73.46.01,0,.03.02.04.03.22.16.44.32.66.5.02.02.05.04.07.06.21.17.42.35.62.54.02.02.05.04.07.07.2.19.41.39.6.6.02.02.03.04.05.05.21.22.42.46.61.7,0,0,0,0,0,0,.2.24.4.49.58.75.02.03.04.05.06.08.14.2.28.4.42.61.16.24.31.48.46.72.05.08.1.17.15.25h0c.15.27.3.54.44.82.01.03.03.05.04.08.14.28.27.56.4.84,0,.01.01.03.02.04.12.28.23.56.34.84,0,.02.01.04.02.06.11.29.2.58.29.87,0,.02,0,.03.01.05.08.28.16.56.22.84,0,.03.01.05.02.08.07.29.12.57.17.85,0,0,0,.01,0,.02.04.29.08.57.1.86,0,.02,0,.05,0,.07.02.28.04.57.03.84,0,.28-.02.55-.04.8,0,.02,0,.05,0,.07-.02.24-.06.46-.1.68,0,.03-.01.06-.02.09-.04.21-.1.41-.16.6-.01.04-.02.08-.04.11-.07.19-.14.38-.22.55,0,0,0,.01,0,.02-.09.18-.18.35-.29.52-.15.24-.33.44-.51.63-.04.04-.09.09-.14.13-.2.18-.4.34-.63.47h0,0c1.66-.96,3.31-1.93,4.97-2.89.48-.28,1-.58,1.53-.89.34-.2.68-.4,1.02-.59.46-.27.9-.53,1.33-.77.19-.11.38-.22.56-.33-.18.11-.37.21-.55.32.18-.11.38-.22.55-.32.23-.13.43-.29.63-.47.05-.04.09-.08.14-.13.19-.19.36-.4.51-.63,0,0,.01-.01.02-.02.1-.15.19-.32.27-.49,0,0,0,0,0,0,0,0,0-.01,0-.02.06-.13.12-.26.17-.4.02-.05.04-.11.05-.16.01-.04.02-.07.04-.11.01-.04.03-.08.04-.12.04-.12.07-.24.1-.36,0-.04.02-.08.02-.12,0-.03.01-.06.02-.08,0-.05.02-.1.03-.15.02-.11.04-.23.05-.35,0-.06.01-.12.02-.19,0-.02,0-.04,0-.07,0-.03,0-.06,0-.09,0-.11.02-.23.02-.35,0-.11,0-.23,0-.35v-.02c0-.11,0-.22,0-.33m-4.95,6.64c.28-.16.56-.32.84-.49-.28.16-.56.32-.84.49"/>
      <path class="cls-1" d="m360.74,139.59c0-.12,0-.23-.02-.35,0-.05,0-.11-.01-.16,0-.02,0-.05,0-.07,0-.04,0-.08,0-.12-.01-.12-.02-.24-.04-.36-.01-.12-.03-.24-.05-.36,0,0,0-.01,0-.02s0-.01,0-.02c-.02-.11-.04-.22-.06-.33-.02-.12-.05-.25-.08-.38-.01-.05-.02-.09-.03-.14,0-.03-.01-.05-.02-.08-.01-.05-.02-.11-.04-.16-.03-.13-.07-.26-.1-.39-.03-.1-.06-.2-.08-.29,0-.02,0-.03-.01-.05,0-.01,0-.03-.01-.04-.04-.13-.08-.25-.12-.38-.04-.12-.08-.25-.13-.37,0-.02-.02-.05-.03-.07,0-.02-.01-.04-.02-.06-.03-.08-.06-.15-.09-.23-.04-.12-.09-.23-.14-.35-.04-.09-.07-.17-.11-.26,0-.01-.01-.03-.02-.04,0-.01-.01-.03-.02-.04-.05-.12-.1-.24-.16-.35-.06-.12-.12-.25-.18-.37-.01-.02-.02-.05-.04-.07-.01-.03-.03-.05-.04-.08-.05-.09-.09-.18-.14-.27-.1-.18-.2-.36-.3-.54-.01-.03-.03-.05-.04-.08-.03-.06-.07-.11-.11-.17-.15-.25-.3-.49-.46-.73-.02-.04-.04-.07-.07-.11-.11-.17-.23-.33-.35-.49-.02-.03-.04-.06-.06-.08,0,0,0-.01-.01-.02-.1-.13-.2-.26-.3-.4-.09-.11-.17-.22-.26-.32,0,0,0-.01-.01-.02,0,0,0,0,0,0-.09-.11-.18-.22-.28-.32-.09-.11-.19-.21-.28-.31-.02-.02-.03-.03-.05-.05-.02-.02-.03-.04-.05-.05-.07-.07-.13-.14-.2-.21-.1-.1-.2-.21-.31-.31-.03-.03-.07-.06-.1-.09-.02-.02-.05-.04-.07-.07-.05-.05-.1-.09-.15-.14-.11-.1-.21-.19-.32-.28-.05-.04-.1-.08-.14-.12-.02-.02-.05-.04-.07-.06-.04-.03-.07-.06-.11-.09-.11-.08-.21-.17-.32-.24-.08-.06-.15-.11-.23-.17-.01,0-.03-.02-.04-.03-.01,0-.03-.02-.04-.03-.1-.07-.21-.14-.31-.2-.1-.07-.2-.13-.31-.19-.02-.01-.05-.03-.07-.04-.08-.04-.16-.09-.23-.13-.1-.05-.2-.11-.3-.15-.06-.03-.12-.06-.18-.09-.02,0-.03-.02-.05-.02-.02,0-.04-.02-.06-.03-.1-.04-.2-.09-.29-.12-.1-.04-.2-.08-.29-.11-.01,0-.03,0-.04-.01-.01,0-.03,0-.04-.01-.07-.02-.14-.05-.21-.07-.1-.03-.2-.06-.3-.08-.04,0-.08-.02-.13-.03-.02,0-.05-.01-.07-.02-.04,0-.07-.02-.11-.02-.11-.02-.21-.04-.31-.05-.06,0-.12-.01-.17-.02-.02,0-.05,0-.07,0-.03,0-.05,0-.08,0-.11,0-.23-.01-.34-.01-.04,0-.09,0-.13,0-.04,0-.07,0-.11,0-.04,0-.09,0-.13,0-.14.01-.28.03-.41.06,0,0,0,0,0,0-.02,0-.03,0-.05.01-.16.03-.31.07-.46.12,0,0-.02,0-.03.01-.19.07-.38.15-.55.25-2.83,1.63-6.6,3.83-9.42,5.48.18-.1.36-.18.55-.25.16-.06.32-.1.49-.14.02,0,.03,0,.05-.01.18-.03.36-.05.55-.07.04,0,.07,0,.11,0,.18,0,.36,0,.55.01.02,0,.05,0,.07,0,.19.02.39.05.6.09.02,0,.04,0,.07.01.21.05.42.11.64.18.01,0,.03,0,.04.01.23.08.45.17.69.28.02,0,.03.02.05.02.24.11.48.23.72.37.25.14.49.3.73.46.01,0,.03.02.04.03.22.16.44.32.66.5.02.02.05.04.07.06.21.17.42.35.62.54.02.02.05.04.07.07.2.19.41.39.6.6.02.02.03.04.05.05.21.22.42.46.61.7,0,0,0,0,0,0,.2.24.4.49.58.75.02.03.04.05.06.08.14.2.28.4.42.61.16.24.31.48.46.72.05.08.1.17.15.25h0c.15.27.3.54.44.82.01.03.03.05.04.08.14.28.27.56.4.84,0,.01.01.03.02.04.12.28.23.56.34.84,0,.02.01.04.02.06.11.29.2.58.29.87,0,.02,0,.03.01.05.08.28.16.56.22.84,0,.03.01.05.02.08.07.29.12.57.17.85,0,0,0,.01,0,.02.04.29.08.57.1.86,0,.02,0,.05,0,.07.02.28.04.57.03.84,0,.28-.02.55-.04.8,0,.02,0,.05,0,.07-.02.24-.06.46-.1.68,0,.03-.01.06-.02.09-.04.21-.1.41-.16.6-.01.04-.02.08-.04.11-.07.19-.14.38-.22.55,0,0,0,.01,0,.02-.09.18-.18.35-.29.52-.15.24-.33.44-.51.63-.04.04-.09.09-.14.13-.2.18-.4.34-.63.47h0,0c1.66-.96,3.31-1.93,4.97-2.89.48-.28,1-.58,1.53-.89.34-.2.68-.4,1.02-.59.46-.27.9-.53,1.33-.77.19-.11.38-.22.56-.33-.18.11-.37.21-.55.32.18-.11.38-.22.55-.32.23-.13.43-.29.63-.47.05-.04.09-.08.14-.13.19-.19.36-.4.51-.63,0,0,.01-.01.02-.02.1-.15.19-.32.27-.49,0,0,0,0,0,0,0,0,0-.01,0-.02.06-.13.12-.26.17-.4.02-.05.04-.11.05-.16.01-.04.02-.07.04-.11.01-.04.03-.08.04-.12.04-.12.07-.24.1-.36,0-.04.02-.08.02-.12,0-.03.01-.06.02-.08,0-.05.02-.1.03-.15.02-.11.04-.23.05-.35,0-.06.01-.12.02-.19,0-.02,0-.04,0-.07,0-.03,0-.06,0-.09,0-.11.02-.23.02-.35,0-.11,0-.23,0-.35v-.02c0-.11,0-.22,0-.33Zm-4.95,6.64c.28-.16.56-.32.84-.49-.28.16-.56.32-.84.49Z"/>
      <path class="cls-3" d="m344.07,132.82c2.01,1.16,3.82,3.14,5.14,5.42,1.31,2.27,2.12,4.83,2.12,7.15,0,2.32-.83,3.93-2.15,4.68-1.33.76-3.15.64-5.15-.52-2.01-1.16-3.83-3.14-5.15-5.43-1.31-2.27-2.11-4.83-2.12-7.15.02-2.31.83-3.93,2.15-4.68,1.33-.76,3.15-.64,5.16.52"/>
      <path class="cls-1" d="m344.07,132.82c2.01,1.16,3.82,3.14,5.14,5.42,1.31,2.27,2.12,4.83,2.12,7.15,0,2.32-.83,3.93-2.15,4.68-1.33.76-3.15.64-5.15-.52-2.01-1.16-3.83-3.14-5.15-5.43-1.31-2.27-2.11-4.83-2.12-7.15.02-2.31.83-3.93,2.15-4.68,1.33-.76,3.15-.64,5.16.52Z"/>
      <path class="cls-3" d="m347.53,139.18c-1.11-1.92-3.58-2.59-5.5-1.47L22.56,322.15c-7.19,4.15-14.55,7.88-22.06,11.22v8.76c8.89-3.81,17.61-8.13,26.08-13.02l319.47-184.45c1.93-1.11,2.58-3.57,1.47-5.5"/>
      <path class="cls-1" d="m347.53,139.18c-1.11-1.92-3.58-2.59-5.5-1.47L22.56,322.15c-7.19,4.15-14.55,7.88-22.06,11.22v8.76c8.89-3.81,17.61-8.13,26.08-13.02l319.47-184.45c1.93-1.11,2.58-3.57,1.47-5.5Z"/>
    </g>
  </g>
</svg>