<?xml version="1.0" encoding="UTF-8"?>
<svg id="_Слой_2" data-name="Слой 2" xmlns="http://www.w3.org/2000/svg" xmlns:xlink="http://www.w3.org/1999/xlink" viewBox="0 0 512 463.78">
  <defs>
    <style>
      .cls-1 {
        fill: #2d7dff;
      }

      .cls-1, .cls-2, .cls-3, .cls-4, .cls-5, .cls-6, .cls-7 {
        stroke-width: 0px;
      }

      .cls-2 {
        fill: #f5f5f5;
      }

      .cls-3 {
        fill: none;
      }

      .cls-4 {
        fill: #0050ff;
      }

      .cls-5 {
        fill: #ff1f3e;
      }

      .cls-8 {
        clip-path: url(#clippath);
      }

      .cls-6 {
        fill: #e0e3ee;
      }

      .cls-7 {
        fill: #ff6379;
      }
    </style>
    <clipPath id="clippath">
      <rect class="cls-3" width="512" height="463.78"/>
    </clipPath>
  </defs>
  <g id="_Слой_1-2" data-name="Слой 1">
    <g class="cls-8">
      <path class="cls-1" d="m0,159.58c0,58.17,20.59,108.04,50.1,149.6,7.4,10.42,18.72,15,29.12,15h353.53c10.4,0,21.72-4.58,29.12-15,29.52-41.56,50.12-91.43,50.12-149.6,0-1.68-.02-3.34-.05-4.99-.28-12.87-12.32-15-15.18-15H15.23c-2.83,0-14.9,2.19-15.18,15-.04,1.65-.05,3.31-.05,4.99Z"/>
      <path class="cls-4" d="m461.88,309.19c29.52-41.56,50.12-91.44,50.12-149.6,0-1.68-.02-3.34-.05-4.99-.28-12.87-12.32-15-15.18-15h-240.77v184.59h176.76c10.4,0,21.72-4.58,29.12-15"/>
      <path class="cls-7" d="m461.88,309.19H50.1c65.14,91.74,173.75,142.98,200.36,153.54,1.78.71,3.65,1.06,5.53,1.06s3.76-.35,5.53-1.06c26.47-10.5,135.16-61.75,200.35-153.54Z"/>
      <path class="cls-5" d="m461.88,309.19h-205.88v154.59c1.88,0,3.76-.35,5.53-1.06,26.47-10.5,135.16-61.75,200.35-153.54"/>
      <path class="cls-2" d="m.06,154.6h511.88C509.43,33.17,415.24,0,352.38,0c-29.65,0-57.79,9.35-81.35,27.05-6,4.51-11.01,9.02-15.03,13.06-4.03-4.04-9.03-8.55-15.03-13.06C217.4,9.35,189.27,0,159.62,0,96.77,0,2.57,33.16.06,154.6"/>
      <path class="cls-6" d="m352.38,0c-29.65,0-57.79,9.35-81.35,27.05-6,4.51-11.01,9.02-15.03,13.06v114.49h255.94C509.43,33.17,415.24,0,352.38,0"/>
    </g>
  </g>
</svg>