<?xml version="1.0" encoding="UTF-8"?>
<svg id="_Слой_2" data-name="Слой 2" xmlns="http://www.w3.org/2000/svg" xmlns:xlink="http://www.w3.org/1999/xlink" viewBox="0 0 189.15 388.74">
  <defs>
    <style>
      .cls-1, .cls-2 {
        fill: none;
      }

      .cls-1, .cls-3, .cls-4 {
        stroke-width: 0px;
      }

      .cls-2 {
        stroke: #8f9599;
        stroke-linecap: round;
        stroke-linejoin: round;
      }

      .cls-3 {
        fill: #fff;
      }

      .cls-5 {
        clip-path: url(#clippath);
      }

      .cls-4, .cls-6 {
        fill: #0293e9;
      }

      .cls-6 {
        font-family: Onest-Bold, Onest;
        font-size: 9.97px;
        font-weight: 700;
      }

      .cls-7 {
        letter-spacing: 0em;
      }
    </style>
    <clipPath id="clippath">
      <rect class="cls-1" width="189.15" height="388.74"/>
    </clipPath>
  </defs>
  <g id="_Слой_1-2" data-name="Слой 1">
    <g class="cls-5">
      <path class="cls-3" d="m188.65,81.98l-.3-.36h0s-.6,0-.6,0V26.78c0-14.51-11.76-26.28-26.28-26.28H28.31C13.8.5,2.03,12.27,2.03,26.78v21.83h-.64s-.6,0-.6,0h0s-.3.37-.3.37c.15,2.97.14,11.44,0,14.4l.3.36h0s.6,0,.6,0h0s.64,0,.64,0v17.88h-.64s-.6,0-.6,0h0s-.3.37-.3.37c.15,2.97.14,24.19,0,27.15l.3.36h0s.6,0,.6,0h0s.64,0,.64,0v7.08h-.64s-.6,0-.6,0h0s-.3.37-.3.37c.15,2.97.14,24.19,0,27.15l.3.36h0s.6,0,.6,0h0s.64,0,.64,0v217.5c0,14.51,11.76,26.28,26.28,26.28h133.17c14.51,0,26.28-11.77,26.28-26.28V123.09h.6s.3-.36.3-.36c-.14-2.96-.15-37.78,0-40.75"/>
      <path class="cls-2" d="m188.65,81.98l-.3-.36h0s-.6,0-.6,0V26.78c0-14.51-11.76-26.28-26.28-26.28H28.31C13.8.5,2.03,12.27,2.03,26.78v21.83h-.64s-.6,0-.6,0h0s-.3.37-.3.37c.15,2.97.14,11.44,0,14.4l.3.36h0s.6,0,.6,0h0s.64,0,.64,0v17.88h-.64s-.6,0-.6,0h0s-.3.37-.3.37c.15,2.97.14,24.19,0,27.15l.3.36h0s.6,0,.6,0h0s.64,0,.64,0v7.08h-.64s-.6,0-.6,0h0s-.3.37-.3.37c.15,2.97.14,24.19,0,27.15l.3.36h0s.6,0,.6,0h0s.64,0,.64,0v217.5c0,14.51,11.76,26.28,26.28,26.28h133.17c14.51,0,26.28-11.77,26.28-26.28V123.09h.6s.3-.36.3-.36c-.14-2.96-.15-37.78,0-40.75Z"/>
      <path class="cls-3" d="m29.65,4.45h129.84c13.24,0,23.99,10.75,23.99,23.99v331.85c0,13.24-10.75,23.99-23.99,23.99H29.65c-13.24,0-23.99-10.75-23.99-23.99V28.44c0-13.24,10.75-23.99,23.99-23.99Z"/>
      <path class="cls-2" d="m29.65,4.45h129.84c13.24,0,23.99,10.75,23.99,23.99v331.85c0,13.24-10.75,23.99-23.99,23.99H29.65c-13.24,0-23.99-10.75-23.99-23.99V28.44c0-13.24,10.75-23.99,23.99-23.99Z"/>
      <path class="cls-4" d="m72.16,166.46c-1.39,1.39-1.39,3.64,0,5.04,1.38,1.39,3.64,1.39,5.04,0,9.58-9.58,25.19-9.58,34.77,0,.69.69,1.6,1.05,2.51,1.05s1.82-.35,2.51-1.05c1.38-1.38,1.38-3.64,0-5.04-12.36-12.37-32.48-12.37-44.83,0"/>
      <path class="cls-4" d="m81.77,176.08c-1.39,1.39-1.39,3.64,0,5.04,1.38,1.39,3.64,1.39,5.04,0,4.28-4.29,11.26-4.29,15.53,0,.69.69,1.6,1.05,2.51,1.05s1.82-.35,2.51-1.05c1.39-1.38,1.39-3.64,0-5.02-7.05-7.07-18.53-7.07-25.59-.01"/>
      <path class="cls-4" d="m94.57,184.13c2.62,0,4.74,2.12,4.74,4.74s-2.12,4.74-4.74,4.74-4.74-2.12-4.74-4.74,2.12-4.74,4.74-4.74"/>
      <path class="cls-4" d="m126.75,156.69c-17.75-17.73-46.61-17.73-64.36,0-1.38,1.39-1.38,3.64,0,5.04,1.39,1.39,3.64,1.39,5.04,0,14.96-14.97,39.32-14.97,54.29,0,.69.69,1.6,1.05,2.51,1.05s1.82-.35,2.51-1.05c1.38-1.38,1.38-3.64,0-5.04"/>
    </g>
    <text class="cls-6" transform="translate(57.45 213.99)"><tspan x="0" y="0">П</tspan><tspan class="cls-7" x="7.36" y="0">О</tspan><tspan x="14.97" y="0">ДКЛЮЧЕНО</tspan></text>
  </g>
</svg>