<?xml version="1.0" encoding="UTF-8"?>
<svg id="_Слой_2" data-name="Слой 2" xmlns="http://www.w3.org/2000/svg" xmlns:xlink="http://www.w3.org/1999/xlink" viewBox="0 0 191.23 416.22">
  <defs>
    <style>
      .cls-1 {
        stroke: #8f9599;
        stroke-miterlimit: 10;
      }

      .cls-1, .cls-2 {
        fill: none;
      }

      .cls-2, .cls-3 {
        stroke-width: 0px;
      }

      .cls-3 {
        fill: #fff;
      }

      .cls-4 {
        clip-path: url(#clippath);
      }
    </style>
    <clipPath id="clippath">
      <rect class="cls-2" width="191.23" height="416.22"/>
    </clipPath>
  </defs>
  <g id="_Слой_1-2" data-name="Слой 1">
    <g class="cls-4">
      <path class="cls-3" d="m.5,27.3v362.94c0,6.52,9.29,13.04,27.86,18.02,37.14,9.95,97.36,9.95,134.51,0,18.57-4.98,27.86-11.5,27.86-18.02V27.3H.5Z"/>
      <path class="cls-1" d="m.5,27.3v362.94c0,6.52,9.29,13.04,27.86,18.02,37.14,9.95,97.36,9.95,134.51,0,18.57-4.98,27.86-11.5,27.86-18.02V27.3H.5Z"/>
      <path class="cls-3" d="m.5,27.3v362.94c0,6.52,9.29,13.04,27.86,18.02,37.14,9.95,97.36,9.95,134.51,0,18.57-4.98,27.86-11.5,27.86-18.02V27.3H.5Z"/>
      <path class="cls-1" d="m.5,27.3v362.94c0,6.52,9.29,13.04,27.86,18.02,37.14,9.95,97.36,9.95,134.51,0,18.57-4.98,27.86-11.5,27.86-18.02V27.3H.5Z"/>
      <polygon class="cls-3" points="127.85 228.78 102.9 228.78 108.49 176.22 63.39 240.18 88.33 240.18 82.74 292.74 127.85 228.78"/>
      <polygon class="cls-1" points="127.85 228.78 102.9 228.78 108.49 176.22 63.39 240.18 88.33 240.18 82.74 292.74 127.85 228.78"/>
      <path class="cls-3" d="m28.36,9.28C65.5-.67,125.72-.67,162.87,9.28c37.14,9.95,37.14,26.09,0,36.04-37.14,9.95-97.36,9.95-134.51,0-37.14-9.95-37.14-26.09,0-36.04Z"/>
      <path class="cls-1" d="m28.36,9.28C65.5-.67,125.72-.67,162.87,9.28c37.14,9.95,37.14,26.09,0,36.04-37.14,9.95-97.36,9.95-134.51,0-37.14-9.95-37.14-26.09,0-36.04Z"/>
      <path class="cls-3" d="m40.19,12.45c30.61-8.2,80.23-8.2,110.84,0,30.61,8.2,30.61,21.5,0,29.7-30.61,8.2-80.23,8.2-110.84,0-30.61-8.2-30.61-21.5,0-29.7"/>
      <ellipse class="cls-1" cx="95.61" cy="27.3" rx="78.38" ry="21"/>
      <path class="cls-3" d="m59.88,10.08v17.19c0,2.45,3.49,4.9,10.47,6.77,13.96,3.74,36.58,3.74,50.54,0,6.98-1.87,10.47-4.32,10.47-6.77V10.08H59.88Z"/>
      <path class="cls-1" d="m59.88,10.08v17.19c0,2.45,3.49,4.9,10.47,6.77,13.96,3.74,36.58,3.74,50.54,0,6.98-1.87,10.47-4.32,10.47-6.77V10.08H59.88Z"/>
      <path class="cls-3" d="m59.88,10.08v17.19c0,2.45,3.49,4.9,10.47,6.77,13.96,3.74,36.58,3.74,50.54,0,6.98-1.87,10.47-4.32,10.47-6.77V10.08H59.88Z"/>
      <path class="cls-1" d="m59.88,10.08v17.19c0,2.45,3.49,4.9,10.47,6.77,13.96,3.74,36.58,3.74,50.54,0,6.98-1.87,10.47-4.32,10.47-6.77V10.08H59.88Z"/>
      <path class="cls-3" d="m70.35,3.31c13.96-3.74,36.58-3.74,50.54,0,13.96,3.74,13.96,9.8,0,13.54-13.96,3.74-36.58,3.74-50.54,0-13.96-3.74-13.96-9.8,0-13.54"/>
      <ellipse class="cls-1" cx="95.62" cy="10.08" rx="35.74" ry="9.57"/>
    </g>
  </g>
</svg>