<?xml version="1.0" encoding="UTF-8"?>
<svg id="_Слой_2" data-name="Слой 2" xmlns="http://www.w3.org/2000/svg" xmlns:xlink="http://www.w3.org/1999/xlink" viewBox="0 0 564.24 416.22">
  <defs>
    <style>
      .cls-1 {
        stroke: #8f9599;
        stroke-miterlimit: 10;
      }

      .cls-1, .cls-2 {
        fill: none;
      }

      .cls-2, .cls-3 {
        stroke-width: 0px;
      }

      .cls-3 {
        fill: #fff;
      }

      .cls-4 {
        clip-path: url(#clippath);
      }
    </style>
    <clipPath id="clippath">
      <rect class="cls-2" width="564.24" height="416.22"/>
    </clipPath>
  </defs>
  <g id="_Слой_1-2" data-name="Слой 1">
    <g class="cls-4">
      <path class="cls-3" d="m373.51,27.3v362.94c0,6.52,9.29,13.04,27.86,18.02,37.14,9.95,97.36,9.95,134.51,0,18.57-4.98,27.86-11.5,27.86-18.02V27.3h-190.23Z"/>
      <path class="cls-1" d="m373.51,27.3v362.94c0,6.52,9.29,13.04,27.86,18.02,37.14,9.95,97.36,9.95,134.51,0,18.57-4.98,27.86-11.5,27.86-18.02V27.3h-190.23Z"/>
      <path class="cls-3" d="m373.51,27.3v362.94c0,6.52,9.29,13.04,27.86,18.02,37.14,9.95,97.36,9.95,134.51,0,18.57-4.98,27.86-11.5,27.86-18.02V27.3h-190.23Z"/>
      <path class="cls-1" d="m373.51,27.3v362.94c0,6.52,9.29,13.04,27.86,18.02,37.14,9.95,97.36,9.95,134.51,0,18.57-4.98,27.86-11.5,27.86-18.02V27.3h-190.23Z"/>
      <polygon class="cls-3" points="500.86 228.78 475.91 228.78 481.5 176.22 436.4 240.18 461.34 240.18 455.75 292.74 500.86 228.78"/>
      <polygon class="cls-1" points="500.86 228.78 475.91 228.78 481.5 176.22 436.4 240.18 461.34 240.18 455.75 292.74 500.86 228.78"/>
      <path class="cls-3" d="m401.37,9.28c37.14-9.95,97.36-9.95,134.51,0,37.14,9.95,37.14,26.09,0,36.04-37.14,9.95-97.36,9.95-134.51,0-37.14-9.95-37.14-26.09,0-36.04Z"/>
      <path class="cls-1" d="m401.37,9.28c37.14-9.95,97.36-9.95,134.51,0,37.14,9.95,37.14,26.09,0,36.04-37.14,9.95-97.36,9.95-134.51,0-37.14-9.95-37.14-26.09,0-36.04Z"/>
      <path class="cls-3" d="m413.2,12.45c30.61-8.2,80.23-8.2,110.84,0,30.61,8.2,30.61,21.5,0,29.7s-80.23,8.2-110.84,0c-30.61-8.2-30.61-21.5,0-29.7"/>
      <ellipse class="cls-1" cx="468.62" cy="27.3" rx="78.38" ry="21"/>
      <path class="cls-3" d="m432.89,10.08v17.19c0,2.45,3.49,4.9,10.47,6.77,13.96,3.74,36.58,3.74,50.54,0,6.98-1.87,10.47-4.32,10.47-6.77V10.08h-71.48Z"/>
      <path class="cls-1" d="m432.89,10.08v17.19c0,2.45,3.49,4.9,10.47,6.77,13.96,3.74,36.58,3.74,50.54,0,6.98-1.87,10.47-4.32,10.47-6.77V10.08h-71.48Z"/>
      <path class="cls-3" d="m432.89,10.08v17.19c0,2.45,3.49,4.9,10.47,6.77,13.96,3.74,36.58,3.74,50.54,0,6.98-1.87,10.47-4.32,10.47-6.77V10.08h-71.48Z"/>
      <path class="cls-1" d="m432.89,10.08v17.19c0,2.45,3.49,4.9,10.47,6.77,13.96,3.74,36.58,3.74,50.54,0,6.98-1.87,10.47-4.32,10.47-6.77V10.08h-71.48Z"/>
      <path class="cls-3" d="m443.36,3.31c13.96-3.74,36.58-3.74,50.54,0,13.96,3.74,13.96,9.8,0,13.54-13.96,3.74-36.58,3.74-50.54,0-13.96-3.74-13.96-9.8,0-13.54"/>
      <ellipse class="cls-1" cx="468.63" cy="10.08" rx="35.74" ry="9.57"/>
      <path class="cls-3" d="m163.99,358.58v42.44c0,3.76,5.35,7.52,16.06,10.39,21.42,5.74,56.15,5.74,77.57,0,10.71-2.87,16.07-6.63,16.07-10.39v-42.44h-109.7Z"/>
      <path class="cls-1" d="m163.99,358.58v42.44c0,3.76,5.35,7.52,16.06,10.39,21.42,5.74,56.15,5.74,77.57,0,10.71-2.87,16.07-6.63,16.07-10.39v-42.44h-109.7Z"/>
      <path class="cls-3" d="m180.06,348.19c21.42-5.74,56.15-5.74,77.57,0,21.42,5.74,21.42,15.05,0,20.78-21.42,5.74-56.15,5.74-77.57,0-21.42-5.74-21.42-15.05,0-20.78"/>
      <path class="cls-1" d="m180.06,348.19c21.42-5.74,56.15-5.74,77.57,0,21.42,5.74,21.42,15.05,0,20.78-21.42,5.74-56.15,5.74-77.57,0-21.42-5.74-21.42-15.05,0-20.78Z"/>
      <path class="cls-3" d="m183.18,244.52v110.51c0,2.45,3.48,4.89,10.45,6.76,13.93,3.73,36.51,3.73,50.44,0,6.96-1.87,10.45-4.31,10.45-6.76v-110.51h-71.34Z"/>
      <path class="cls-1" d="m183.18,244.52v110.51c0,2.45,3.48,4.89,10.45,6.76,13.93,3.73,36.51,3.73,50.44,0,6.96-1.87,10.45-4.31,10.45-6.76v-110.51h-71.34Z"/>
      <polygon class="cls-3" points="351.73 351.36 436.98 175.34 433.59 162.69 348.35 338.71 351.73 351.36"/>
      <polygon class="cls-1" points="351.73 351.36 436.98 175.34 433.59 162.69 348.35 338.71 351.73 351.36"/>
      <polygon class="cls-3" points="433.47 162.33 85.25 69.02 .71 245.2 348.93 338.51 433.47 162.33"/>
      <polygon class="cls-1" points="433.47 162.33 85.25 69.02 .71 245.2 348.93 338.51 433.47 162.33"/>
      <polygon class="cls-3" points="125.11 89.45 94.15 81.15 88.1 84.04 73.71 114.04 75.91 119.15 106.88 127.44 112.92 124.55 127.32 94.55 125.11 89.45"/>
      <polygon class="cls-1" points="125.11 89.45 94.15 81.15 88.1 84.04 73.71 114.04 75.91 119.15 106.88 127.44 112.92 124.55 127.32 94.55 125.11 89.45"/>
      <polygon class="cls-3" points="166.71 100.59 135.74 92.3 129.7 95.19 115.31 125.19 117.51 130.29 148.48 138.59 154.52 135.7 168.92 105.7 166.71 100.59"/>
      <polygon class="cls-1" points="166.71 100.59 135.74 92.3 129.7 95.19 115.31 125.19 117.51 130.29 148.48 138.59 154.52 135.7 168.92 105.7 166.71 100.59"/>
      <polygon class="cls-3" points="208.31 111.74 177.34 103.44 171.3 106.33 156.9 136.33 159.11 141.44 190.07 149.73 196.12 146.84 210.51 116.84 208.31 111.74"/>
      <polygon class="cls-1" points="208.31 111.74 177.34 103.44 171.3 106.33 156.9 136.33 159.11 141.44 190.07 149.73 196.12 146.84 210.51 116.84 208.31 111.74"/>
      <polygon class="cls-3" points="249.9 122.88 218.94 114.59 212.9 117.48 198.5 147.48 200.71 152.58 231.67 160.88 237.71 157.99 252.11 127.99 249.9 122.88"/>
      <polygon class="cls-1" points="249.9 122.88 218.94 114.59 212.9 117.48 198.5 147.48 200.71 152.58 231.67 160.88 237.71 157.99 252.11 127.99 249.9 122.88"/>
      <polygon class="cls-3" points="291.5 134.03 260.53 125.73 254.49 128.62 240.1 158.63 242.3 163.73 273.27 172.03 279.31 169.13 293.71 139.13 291.5 134.03"/>
      <polygon class="cls-1" points="291.5 134.03 260.53 125.73 254.49 128.62 240.1 158.63 242.3 163.73 273.27 172.03 279.31 169.13 293.71 139.13 291.5 134.03"/>
      <polygon class="cls-3" points="333.1 145.18 302.13 136.88 296.09 139.77 281.69 169.77 283.9 174.87 314.87 183.17 320.91 180.28 335.3 150.28 333.1 145.18"/>
      <polygon class="cls-1" points="333.1 145.18 302.13 136.88 296.09 139.77 281.69 169.77 283.9 174.87 314.87 183.17 320.91 180.28 335.3 150.28 333.1 145.18"/>
      <polygon class="cls-3" points="374.7 156.32 343.73 148.03 337.69 150.92 323.29 180.92 325.5 186.02 356.46 194.32 362.5 191.43 376.9 161.42 374.7 156.32"/>
      <polygon class="cls-1" points="374.7 156.32 343.73 148.03 337.69 150.92 323.29 180.92 325.5 186.02 356.46 194.32 362.5 191.43 376.9 161.42 374.7 156.32"/>
      <polygon class="cls-3" points="416.29 167.47 385.33 159.17 379.28 162.06 364.89 192.06 367.09 197.17 398.06 205.46 404.1 202.57 418.5 172.57 416.29 167.47"/>
      <polygon class="cls-1" points="416.29 167.47 385.33 159.17 379.28 162.06 364.89 192.06 367.09 197.17 398.06 205.46 404.1 202.57 418.5 172.57 416.29 167.47"/>
      <polygon class="cls-3" points="105.77 129.75 74.81 121.46 68.76 124.35 54.37 154.35 56.57 159.45 87.54 167.75 93.58 164.86 107.98 134.85 105.77 129.75"/>
      <polygon class="cls-1" points="105.77 129.75 74.81 121.46 68.76 124.35 54.37 154.35 56.57 159.45 87.54 167.75 93.58 164.86 107.98 134.85 105.77 129.75"/>
      <polygon class="cls-3" points="147.37 140.9 116.4 132.6 110.36 135.49 95.96 165.49 98.17 170.6 129.14 178.89 135.18 176 149.57 146 147.37 140.9"/>
      <polygon class="cls-1" points="147.37 140.9 116.4 132.6 110.36 135.49 95.96 165.49 98.17 170.6 129.14 178.89 135.18 176 149.57 146 147.37 140.9"/>
      <polygon class="cls-3" points="188.97 152.04 158 143.75 151.96 146.64 137.56 176.64 139.77 181.74 170.73 190.04 176.77 187.15 191.17 157.15 188.97 152.04"/>
      <polygon class="cls-1" points="188.97 152.04 158 143.75 151.96 146.64 137.56 176.64 139.77 181.74 170.73 190.04 176.77 187.15 191.17 157.15 188.97 152.04"/>
      <polygon class="cls-3" points="230.56 163.19 199.6 154.89 193.55 157.78 179.16 187.79 181.36 192.89 212.33 201.18 218.37 198.29 232.77 168.29 230.56 163.19"/>
      <polygon class="cls-1" points="230.56 163.19 199.6 154.89 193.55 157.78 179.16 187.79 181.36 192.89 212.33 201.18 218.37 198.29 232.77 168.29 230.56 163.19"/>
      <polygon class="cls-3" points="272.16 174.34 241.19 166.04 235.15 168.93 220.76 198.93 222.96 204.03 253.93 212.33 259.97 209.44 274.37 179.44 272.16 174.34"/>
      <polygon class="cls-1" points="272.16 174.34 241.19 166.04 235.15 168.93 220.76 198.93 222.96 204.03 253.93 212.33 259.97 209.44 274.37 179.44 272.16 174.34"/>
      <polygon class="cls-3" points="313.76 185.48 282.79 177.18 276.75 180.08 262.35 210.08 264.56 215.18 295.53 223.48 301.57 220.58 315.96 190.58 313.76 185.48"/>
      <polygon class="cls-1" points="313.76 185.48 282.79 177.18 276.75 180.08 262.35 210.08 264.56 215.18 295.53 223.48 301.57 220.58 315.96 190.58 313.76 185.48"/>
      <polygon class="cls-3" points="355.35 196.63 324.39 188.33 318.35 191.22 303.95 221.22 306.16 226.33 337.12 234.62 343.16 231.73 357.56 201.73 355.35 196.63"/>
      <polygon class="cls-1" points="355.35 196.63 324.39 188.33 318.35 191.22 303.95 221.22 306.16 226.33 337.12 234.62 343.16 231.73 357.56 201.73 355.35 196.63"/>
      <polygon class="cls-3" points="396.95 207.77 365.99 199.48 359.94 202.37 345.55 232.37 347.75 237.47 378.72 245.77 384.76 242.88 399.16 212.88 396.95 207.77"/>
      <polygon class="cls-1" points="396.95 207.77 365.99 199.48 359.94 202.37 345.55 232.37 347.75 237.47 378.72 245.77 384.76 242.88 399.16 212.88 396.95 207.77"/>
      <polygon class="cls-3" points="86.43 170.06 55.46 161.76 49.42 164.65 35.03 194.65 37.23 199.75 68.2 208.05 74.24 205.16 88.64 175.16 86.43 170.06"/>
      <polygon class="cls-1" points="86.43 170.06 55.46 161.76 49.42 164.65 35.03 194.65 37.23 199.75 68.2 208.05 74.24 205.16 88.64 175.16 86.43 170.06"/>
      <polygon class="cls-3" points="128.03 181.2 97.06 172.91 91.02 175.8 76.62 205.8 78.83 210.9 109.8 219.2 115.84 216.31 130.23 186.3 128.03 181.2"/>
      <polygon class="cls-1" points="128.03 181.2 97.06 172.91 91.02 175.8 76.62 205.8 78.83 210.9 109.8 219.2 115.84 216.31 130.23 186.3 128.03 181.2"/>
      <polygon class="cls-3" points="169.63 192.35 138.66 184.05 132.62 186.94 118.22 216.94 120.43 222.05 151.39 230.34 157.43 227.45 171.83 197.45 169.63 192.35"/>
      <polygon class="cls-1" points="169.63 192.35 138.66 184.05 132.62 186.94 118.22 216.94 120.43 222.05 151.39 230.34 157.43 227.45 171.83 197.45 169.63 192.35"/>
      <polygon class="cls-3" points="211.22 203.49 180.26 195.2 174.21 198.09 159.82 228.09 162.02 233.19 192.99 241.49 199.03 238.6 213.43 208.6 211.22 203.49"/>
      <polygon class="cls-1" points="211.22 203.49 180.26 195.2 174.21 198.09 159.82 228.09 162.02 233.19 192.99 241.49 199.03 238.6 213.43 208.6 211.22 203.49"/>
      <polygon class="cls-3" points="252.82 214.64 221.85 206.34 215.81 209.24 201.42 239.24 203.62 244.34 234.59 252.64 240.63 249.74 255.03 219.74 252.82 214.64"/>
      <polygon class="cls-1" points="252.82 214.64 221.85 206.34 215.81 209.24 201.42 239.24 203.62 244.34 234.59 252.64 240.63 249.74 255.03 219.74 252.82 214.64"/>
      <polygon class="cls-3" points="294.42 225.79 263.45 217.49 257.41 220.38 243.01 250.38 245.22 255.48 276.18 263.78 282.23 260.89 296.62 230.89 294.42 225.79"/>
      <polygon class="cls-1" points="294.42 225.79 263.45 217.49 257.41 220.38 243.01 250.38 245.22 255.48 276.18 263.78 282.23 260.89 296.62 230.89 294.42 225.79"/>
      <polygon class="cls-3" points="336.01 236.93 305.05 228.64 299.01 231.53 284.61 261.53 286.82 266.63 317.78 274.93 323.82 272.04 338.22 242.03 336.01 236.93"/>
      <polygon class="cls-1" points="336.01 236.93 305.05 228.64 299.01 231.53 284.61 261.53 286.82 266.63 317.78 274.93 323.82 272.04 338.22 242.03 336.01 236.93"/>
      <polygon class="cls-3" points="377.61 248.08 346.64 239.78 340.6 242.67 326.21 272.67 328.41 277.78 359.38 286.07 365.42 283.18 379.82 253.18 377.61 248.08"/>
      <polygon class="cls-1" points="377.61 248.08 346.64 239.78 340.6 242.67 326.21 272.67 328.41 277.78 359.38 286.07 365.42 283.18 379.82 253.18 377.61 248.08"/>
      <polygon class="cls-3" points="67.09 210.36 36.12 202.06 30.08 204.96 15.69 234.96 17.89 240.06 48.86 248.36 54.9 245.46 69.29 215.46 67.09 210.36"/>
      <polygon class="cls-1" points="67.09 210.36 36.12 202.06 30.08 204.96 15.69 234.96 17.89 240.06 48.86 248.36 54.9 245.46 69.29 215.46 67.09 210.36"/>
      <polygon class="cls-3" points="108.69 221.51 77.72 213.21 71.68 216.1 57.28 246.1 59.49 251.21 90.45 259.5 96.5 256.61 110.89 226.61 108.69 221.51"/>
      <polygon class="cls-1" points="108.69 221.51 77.72 213.21 71.68 216.1 57.28 246.1 59.49 251.21 90.45 259.5 96.5 256.61 110.89 226.61 108.69 221.51"/>
      <polygon class="cls-3" points="150.28 232.65 119.32 224.36 113.28 227.25 98.88 257.25 101.09 262.35 132.05 270.65 138.09 267.76 152.49 237.76 150.28 232.65"/>
      <polygon class="cls-1" points="150.28 232.65 119.32 224.36 113.28 227.25 98.88 257.25 101.09 262.35 132.05 270.65 138.09 267.76 152.49 237.76 150.28 232.65"/>
      <polygon class="cls-3" points="191.88 243.8 160.92 235.5 154.87 238.39 140.48 268.4 142.68 273.5 173.65 281.79 179.69 278.9 194.09 248.9 191.88 243.8"/>
      <polygon class="cls-1" points="191.88 243.8 160.92 235.5 154.87 238.39 140.48 268.4 142.68 273.5 173.65 281.79 179.69 278.9 194.09 248.9 191.88 243.8"/>
      <polygon class="cls-3" points="233.48 254.95 202.51 246.65 196.47 249.54 182.07 279.54 184.28 284.64 215.25 292.94 221.29 290.05 235.68 260.05 233.48 254.95"/>
      <polygon class="cls-1" points="233.48 254.95 202.51 246.65 196.47 249.54 182.07 279.54 184.28 284.64 215.25 292.94 221.29 290.05 235.68 260.05 233.48 254.95"/>
      <polygon class="cls-3" points="275.08 266.09 244.11 257.79 238.07 260.69 223.67 290.69 225.88 295.79 256.84 304.09 262.88 301.19 277.28 271.19 275.08 266.09"/>
      <polygon class="cls-1" points="275.08 266.09 244.11 257.79 238.07 260.69 223.67 290.69 225.88 295.79 256.84 304.09 262.88 301.19 277.28 271.19 275.08 266.09"/>
      <polygon class="cls-3" points="316.67 277.24 285.71 268.94 279.66 271.83 265.27 301.83 267.47 306.94 298.44 315.23 304.48 312.34 318.88 282.34 316.67 277.24"/>
      <polygon class="cls-1" points="316.67 277.24 285.71 268.94 279.66 271.83 265.27 301.83 267.47 306.94 298.44 315.23 304.48 312.34 318.88 282.34 316.67 277.24"/>
      <polygon class="cls-3" points="358.27 288.38 327.3 280.09 321.26 282.98 306.87 312.98 309.07 318.08 340.04 326.38 346.08 323.49 360.47 293.49 358.27 288.38"/>
      <polygon class="cls-1" points="358.27 288.38 327.3 280.09 321.26 282.98 306.87 312.98 309.07 318.08 340.04 326.38 346.08 323.49 360.47 293.49 358.27 288.38"/>
      <polygon class="cls-3" points="4.5 257.29 352.09 351.15 348.7 338.51 1.29 245.28 4.5 257.29"/>
      <polygon class="cls-1" points="4.5 257.29 352.09 351.15 348.7 338.51 1.29 245.28 4.5 257.29"/>
    </g>
  </g>
</svg>